<?xml version="1.0" encoding="iso-8859-1"?>
<!-- Generator: Adobe Illustrator 19.0.0, SVG Export Plug-In . SVG Version: 6.00 Build 0)  -->
<svg version="1.1" id="Layer_1" xmlns="http://www.w3.org/2000/svg" xmlns:xlink="http://www.w3.org/1999/xlink" x="0px" y="0px"
	 viewBox="0 0 512 512" style="enable-background:new 0 0 512 512;" xml:space="preserve">
<circle style="fill:#F4E3C3;" cx="256" cy="256" r="256"/>
<path style="fill:#FED8B2;" d="M85.333,284.444l222.337,222.337c108.01-22.137,191.216-112.299,202.911-223.756L369.778,142.222
	L85.333,284.444z"/>
<rect x="85.333" y="142.222" style="fill:#2C9984;" width="284.444" height="142.222"/>
<rect x="227.262" y="142.222" style="fill:#238471;" width="142.515" height="142.222"/>
<rect x="95.677" y="151.273" style="fill:#90DFAA;" width="263.758" height="124.121"/>
<rect x="227.262" y="151.273" style="fill:#7ACC92;" width="132.172" height="124.121"/>
<ellipse style="fill:#2C9984;" cx="227.556" cy="213.333" rx="28.444" ry="42.667"/>
<path style="fill:#238471;" d="M227.556,170.667c-0.097,0-0.191,0.009-0.286,0.01v85.311c0.097,0.002,0.191,0.01,0.286,0.01
	c15.71,0,28.444-19.103,28.444-42.667S243.266,170.667,227.556,170.667z"/>
<rect x="142.222" y="199.111" style="fill:#2C9984;" width="284.444" height="142.222"/>
<rect x="284.737" y="199.111" style="fill:#238471;" width="141.929" height="142.222"/>
<rect x="152.566" y="208.162" style="fill:#90DFAA;" width="263.758" height="124.121"/>
<rect x="284.737" y="208.162" style="fill:#7ACC92;" width="131.586" height="124.121"/>
<ellipse style="fill:#2C9984;" cx="284.444" cy="270.222" rx="28.444" ry="42.667"/>
<path style="fill:#238471;" d="M312.889,270.222c0-23.419-12.581-42.422-28.157-42.656v85.311
	C300.308,312.644,312.889,293.641,312.889,270.222z"/>
<g>
</g>
<g>
</g>
<g>
</g>
<g>
</g>
<g>
</g>
<g>
</g>
<g>
</g>
<g>
</g>
<g>
</g>
<g>
</g>
<g>
</g>
<g>
</g>
<g>
</g>
<g>
</g>
<g>
</g>
</svg>
