<?xml version="1.0" encoding="iso-8859-1"?>
<!-- Generator: Adobe Illustrator 19.0.0, SVG Export Plug-In . SVG Version: 6.00 Build 0)  -->
<svg version="1.1" id="Layer_1" xmlns="http://www.w3.org/2000/svg" xmlns:xlink="http://www.w3.org/1999/xlink" x="0px" y="0px"
	 viewBox="0 0 511.882 511.882" style="enable-background:new 0 0 511.882 511.882;" xml:space="preserve">
<path style="fill:#EAC6BB;" d="M372.777,23.595C242.884-43.28,43.32,36.702,82.155,204.086l-19.464,23.556L28.293,290.62
	l33.469,26.588l-1.391,44.74l13.372,19.151c0,0-15.926,59.83,8.412,68.328c45.404,15.84,98.876,8.029,98.876,8.029l2.664,54.426
	h225.87c0,0-22.338-112.818,11.592-160.714C455.102,303.243,565.827,122.979,372.777,23.595z"/>
<path style="fill:#A0D468;" d="M395.913,202.617c0,64.798-52.52,117.31-117.302,117.31c-64.79,0-117.31-52.512-117.31-117.31
	c0-64.782,52.52-117.301,117.31-117.301C343.393,85.316,395.913,137.835,395.913,202.617z"/>
<path style="fill:#656D78;" d="M289.28,201.929v-20.636h21.324c5.889,0,10.669-4.78,10.669-10.669s-4.78-10.654-10.669-10.654
	H289.28v-10.669c0-5.889-4.779-10.669-10.669-10.669s-10.669,4.78-10.669,10.669v10.669h-5.335
	c-18.403,0-24.308,7.529-26.018,13.856c-3.226,11.935,7.038,25.104,31.353,40.162v20.621H246.61c-5.889,0-10.662,4.78-10.662,10.669
	s4.772,10.669,10.662,10.669h21.332c0,5.89,4.779,10.654,10.669,10.654s10.669-4.765,10.669-10.654h5.328
	c18.401,0,24.307-7.545,26.009-13.855C323.85,230.157,313.587,216.988,289.28,201.929z M267.942,188.151
	c-3.539-2.718-6.038-4.999-7.709-6.795c0.702-0.031,1.491-0.062,2.374-0.062h5.335L267.942,188.151L267.942,188.151z
	 M294.608,234.609h-5.328v-6.858c3.531,2.718,6.03,5.015,7.702,6.795C296.279,234.594,295.498,234.609,294.608,234.609z"/>
<g>
</g>
<g>
</g>
<g>
</g>
<g>
</g>
<g>
</g>
<g>
</g>
<g>
</g>
<g>
</g>
<g>
</g>
<g>
</g>
<g>
</g>
<g>
</g>
<g>
</g>
<g>
</g>
<g>
</g>
</svg>
