<?xml version="1.0" encoding="iso-8859-1"?>
<!-- Generator: Adobe Illustrator 19.0.0, SVG Export Plug-In . SVG Version: 6.00 Build 0)  -->
<svg version="1.1" id="Layer_1" xmlns="http://www.w3.org/2000/svg" xmlns:xlink="http://www.w3.org/1999/xlink" x="0px" y="0px"
	 viewBox="0 0 511.883 511.883" style="enable-background:new 0 0 511.883 511.883;" xml:space="preserve">
<path style="fill:#A0D468;" d="M460.049,186.582c0,0-77.545-42.006-133.203-22.276c-34.117,12.091-51.988,49.535-39.944,83.668l0,0
	c12.138,34.086,49.599,51.91,83.731,39.819C426.276,268.063,460.049,186.582,460.049,186.582z"/>
<path style="fill:#8CC153;" d="M383.145,200.61c-1.249-0.219-2.483-0.203-3.654,0l0,0c-1.406,0.234-34.586,6.045-71.141,25.76
	c-15.715,8.451-29.696,18.245-41.74,29.165v-80.466h-21.331v103.632c-13.778,18.105-23.252,38.476-28.189,60.736l20.823,4.608
	c4.452-20.059,13.177-38.382,25.978-54.565h2.719v-3.327c0.906-1.078,1.828-2.141,2.772-3.203
	c12.833-14.387,29.173-27.009,48.544-37.522c33.539-18.199,64.844-23.744,65.156-23.807l0,0c4.312-0.75,7.889-4.093,8.701-8.639
	C392.815,207.17,388.941,201.64,383.145,200.61z"/>
<path style="fill:#434A54;" d="M108.225,406.218c0,0,77.811-128.236,147.716-128.954c69.905-0.734,147.716,128.954,147.716,128.954
	L108.225,406.218L108.225,406.218z"/>
<path style="fill:#EAC6BB;" d="M450.786,367.571c-3.342-0.266-7.014-0.391-11.043-0.391c-26.244,0-67.11,5.593-123.113,15.466
	c-6.967-19.871-51.238-28.588-51.238-28.588s-95.548-5.201-156.534-8.528c-3.89-0.219-7.655-0.312-11.279-0.312
	C16.793,345.202,0,395.628,0,395.628v52.238c0.031,29.945,92.33,44.63,92.643,44.677c73.319,14.481,163.432,19.34,163.432,19.34
	s246.935-97.025,253.418-102.695C515.975,403.532,513.131,372.57,450.786,367.571z"/>
<path style="fill:#DBADA2;" d="M385.833,371.664c-19.402,2.578-42.021,6.202-67.875,10.748c-3.297,1.469-6.686,2.968-10.17,4.452
	c-67.765,28.915-115.691,34.977-143.958,34.977c-5.889,0-10.662,4.779-10.662,10.669s4.772,10.654,10.662,10.654
	c44.099,0,95.462-12.388,152.66-36.82C351.075,391.55,376.881,376.928,385.833,371.664z"/>
<path style="fill:#F6BB42;" d="M323.393,74.638c-11.98-25.213-37.678-42.646-67.452-42.646s-55.479,17.434-67.461,42.646h-7.186
	v31.993c0,41.225,33.422,74.654,74.647,74.654c41.224,0,74.654-33.43,74.654-74.654V74.638H323.393z"/>
<path style="fill:#FFCE54;" d="M330.595,74.638c0,41.225-33.431,74.655-74.654,74.655c-41.225,0-74.647-33.431-74.647-74.655
	S214.716,0,255.941,0C297.165,0,330.595,33.414,330.595,74.638z"/>
<path style="fill:#E8AA3D;" d="M266.61,53.315h-0.016c0-5.78-4.601-10.528-10.403-10.669c-5.89-0.125-10.771,4.53-10.912,10.419
	c0,0.078,0.008,0.156,0.008,0.25h-0.008v42.662h0.008c0,5.765,4.601,10.514,10.404,10.654c5.889,0.141,10.771-4.53,10.911-10.42
	c0-0.078-0.008-0.156-0.008-0.234h0.016V53.315z"/>
<g>
</g>
<g>
</g>
<g>
</g>
<g>
</g>
<g>
</g>
<g>
</g>
<g>
</g>
<g>
</g>
<g>
</g>
<g>
</g>
<g>
</g>
<g>
</g>
<g>
</g>
<g>
</g>
<g>
</g>
</svg>
