<svg xmlns="http://www.w3.org/2000/svg" viewBox="0 0 1004 1004"><title>tiktok-31</title><path d="M100.4,0H903.6A100.4,100.4,0,0,1,1004,100.4V903.6A100.4,100.4,0,0,1,903.6,1004H100.4A100.4,100.4,0,0,1,0,903.6V100.4A100.4,100.4,0,0,1,100.4,0Z" fill="#010101" fill-rule="evenodd"/><path d="M630.43,923.68c30.55,0,55.32-24.57,55.32-54.87S661,813.94,630.43,813.94H622.1c30.55,0,55.31,24.57,55.31,54.87s-24.76,54.87-55.31,54.87Z" fill="#ee1d51" fill-rule="evenodd"/><path d="M621.34,813.94H613c-30.55,0-55.32,24.57-55.32,54.87s24.77,54.87,55.32,54.87h8.33c-30.55,0-55.32-24.57-55.32-54.87S590.79,813.94,621.34,813.94Z" fill="#66c8cf" fill-rule="evenodd"/><ellipse cx="621.72" cy="868.81" rx="26.9" ry="26.68" fill="#010101"/><path d="M200.8,789.14V817h32.58v106H266V817.71h26.52l9.09-28.57Zm266.72,0V817H500.1v106h32.59V817.71h26.52l9.09-28.57ZM307.65,804.93a15.91,15.91,0,1,1,15.9,15.78A15.84,15.84,0,0,1,307.65,804.93Zm0,27.06h31.81v90.94H307.65Zm45.45-42.85V922.93h31.83V888.36l9.85-9,31.06,44.35h34.1L415.23,859,455.39,820H416.75l-31.82,31.57V789.14Zm343.25,0V922.93h31.83V888.36l9.85-9,31.07,44.35h34.1L758.49,859,798.65,820H760l-31.83,31.57V789.14Z" fill="#fff" fill-rule="evenodd"/><path d="M647.25,326a267.35,267.35,0,0,0,156,49.88V264.07a157.33,157.33,0,0,1-32.75-3.42v88a267.4,267.4,0,0,1-156-49.88V527.06c0,114.18-92.61,206.74-206.85,206.74a205.92,205.92,0,0,1-115.15-35A206.25,206.25,0,0,0,440.39,761c114.25,0,206.86-92.55,206.86-206.74V326Zm40.4-112.84a155.83,155.83,0,0,1-40.4-91.27V107.55h-31A156.57,156.57,0,0,0,687.65,213.2Zm-322.9,398a94.64,94.64,0,0,1,104-147.39V349.48A208.46,208.46,0,0,0,436,347.6v89a94.6,94.6,0,0,0-71.29,174.62Z" fill="#ee1d52" fill-rule="evenodd"/><path d="M614.5,298.81a267.4,267.4,0,0,0,156,49.88v-88a156.55,156.55,0,0,1-82.8-47.45,156.57,156.57,0,0,1-71.44-105.65H534.69V554.28a94.64,94.64,0,0,1-169.94,56.94A94.61,94.61,0,0,1,436,436.6v-89c-112.22,2.31-202.48,94-202.48,206.69A206,206,0,0,0,292.5,698.84a206,206,0,0,0,115.15,35c114.24,0,206.85-92.56,206.85-206.74Z" fill="#fff" fill-rule="evenodd"/><path d="M770.45,260.65V236.84a156,156,0,0,1-82.8-23.64A156.47,156.47,0,0,0,770.45,260.65ZM616.21,107.55q-1.12-6.39-1.71-12.84V80.32H501.94V527.06a94.68,94.68,0,0,1-137.19,84.16,94.64,94.64,0,0,0,169.94-56.94V107.55ZM436,347.6V322.25a208.92,208.92,0,0,0-28.38-1.92c-114.25,0-206.86,92.56-206.86,206.73a206.51,206.51,0,0,0,91.71,171.77,206,206,0,0,1-59-144.55c0-112.71,90.26-204.37,202.49-206.68Z" fill="#69c9d0" fill-rule="evenodd"/><path d="M622.09,923.68c30.55,0,55.32-24.57,55.32-54.87s-24.77-54.87-55.32-54.87h-.75c-30.55,0-55.32,24.57-55.32,54.87s24.77,54.87,55.32,54.87Zm-27.27-54.87a26.9,26.9,0,1,1,26.9,26.69A26.78,26.78,0,0,1,594.82,868.81Z" fill="#fff" fill-rule="evenodd"/></svg>